# xmcd
#
# Track frame offsets:
#	150
#	25078
#	45267
#	67810
#	82833
#	98529
#	118460
#	150681
#	168999
#	183314
#	206594
#	216894
#
# Disc length: 3142 seconds
#
# Revision: 0
# Processed by: cddbd v1.5.2PL0 Copyright (c) Steve Scherf et al.
# Submitted via: EZCDAudioConverter 1.3.4.1
#
DISCID=910c440c
DTITLE=Ondatropica - Ondatropica (2012)
DYEAR=1900
DGENRE=
TTITLE0=Bomba Trópica
TTITLE1=Linda Mañana
TTITLE2=Traigan La Batea
TTITLE3=El Caimán Y El Gallinazo
TTITLE4=Mi Negra
TTITLE5=Curro Fuentes
TTITLE6=Descarga Trópica
TTITLE7=Papi Shingaling
TTITLE8=Mambo Loco Especial
TTITLE9=Donde Suena El Bombo
TTITLE10=La Tranca
TTITLE11=Cien Años
EXTD=
EXTT0=
EXTT1=
EXTT2=
EXTT3=
EXTT4=
EXTT5=
EXTT6=
EXTT7=
EXTT8=
EXTT9=
EXTT10=
EXTT11=
PLAYORDER=
